TAS-Beginner-Regular.ufo
<glyph name="quotedbl" format="2">
  <advance width="369"/>
  <unicode hex="0022"/>
  <outline>
    <contour>
      <point x="182" y="452" type="curve" smooth="yes"/>
      <point x="194" y="452"/>
      <point x="207" y="458"/>
      <point x="211" y="474" type="curve" smooth="yes"/>
      <point x="248" y="619" type="line" smooth="yes"/>
      <point x="253" y="638"/>
      <point x="239" y="650"/>
      <point x="226" y="650" type="curve" smooth="yes"/>
      <point x="214" y="650"/>
      <point x="201" y="643"/>
      <point x="197" y="626" type="curve" smooth="yes"/>
      <point x="160" y="482" type="line" smooth="yes"/>
      <point x="155" y="464"/>
      <point x="169" y="452"/>
    </contour>
    <contour>
      <point x="322" y="452" type="curve" smooth="yes"/>
      <point x="334" y="452"/>
      <point x="347" y="458"/>
      <point x="351" y="474" type="curve" smooth="yes"/>
      <point x="388" y="619" type="line" smooth="yes"/>
      <point x="393" y="638"/>
      <point x="379" y="650"/>
      <point x="366" y="650" type="curve" smooth="yes"/>
      <point x="354" y="650"/>
      <point x="341" y="643"/>
      <point x="337" y="626" type="curve" smooth="yes"/>
      <point x="300" y="482" type="line" smooth="yes"/>
      <point x="295" y="464"/>
      <point x="309" y="452"/>
    </contour>
  </outline>
</glyph>
<glyph name="numbersign" format="2">
  <advance width="754"/>
  <unicode hex="0023"/>
  <outline>
    <contour>
      <point x="126" y="214" type="curve" smooth="yes"/>
      <point x="651" y="214" type="line" smooth="yes"/>
      <point x="668" y="214"/>
      <point x="677" y="226"/>
      <point x="677" y="237" type="curve" smooth="yes"/>
      <point x="677" y="248"/>
      <point x="669" y="259"/>
      <point x="651" y="259" type="curve" smooth="yes"/>
      <point x="126" y="259" type="line" smooth="yes"/>
      <point x="108" y="259"/>
      <point x="100" y="248"/>
      <point x="100" y="237" type="curve" smooth="yes"/>
      <point x="100" y="226"/>
      <point x="109" y="214"/>
    </contour>
    <contour>
      <point x="171" y="391" type="curve" smooth="yes"/>
      <point x="694" y="391" type="line" smooth="yes"/>
      <point x="712" y="391"/>
      <point x="721" y="402"/>
      <point x="721" y="413" type="curve" smooth="yes"/>
      <point x="721" y="424"/>
      <point x="712" y="436"/>
      <point x="694" y="436" type="curve" smooth="yes"/>
      <point x="171" y="436" type="line" smooth="yes"/>
      <point x="153" y="436"/>
      <point x="144" y="424"/>
      <point x="144" y="413" type="curve" smooth="yes"/>
      <point x="144" y="402"/>
      <point x="153" y="391"/>
    </contour>
    <contour>
      <point x="217" y="0" type="curve" smooth="yes"/>
      <point x="239" y="0"/>
      <point x="244" y="13"/>
      <point x="247" y="23" type="curve" smooth="yes"/>
      <point x="433" y="617" type="line" smooth="yes"/>
      <point x="439" y="635"/>
      <point x="432" y="650"/>
      <point x="415" y="650" type="curve" smooth="yes"/>
      <point x="396" y="650"/>
      <point x="389" y="641"/>
      <point x="384" y="625" type="curve" smooth="yes"/>
      <point x="196" y="29" type="line" smooth="yes"/>
      <point x="191" y="14"/>
      <point x="199" y="0"/>
    </contour>
    <contour>
      <point x="407" y="0" type="curve" smooth="yes"/>
      <point x="429" y="0"/>
      <point x="434" y="13"/>
      <point x="437" y="23" type="curve" smooth="yes"/>
      <point x="623" y="617" type="line" smooth="yes"/>
      <point x="629" y="635"/>
      <point x="622" y="650"/>
      <point x="605" y="650" type="curve" smooth="yes"/>
      <point x="586" y="650"/>
      <point x="579" y="641"/>
      <point x="574" y="625" type="curve" smooth="yes"/>
      <point x="386" y="29" type="line" smooth="yes"/>
      <point x="381" y="14"/>
      <point x="389" y="0"/>
    </contour>
  </outline>
</glyph>
<glyph name="percent" format="2">
  <advance width="788"/>
  <unicode hex="0025"/>
  <outline>
    <contour>
      <point x="200" y="0" type="curve" smooth="yes"/>
      <point x="213" y="0"/>
      <point x="220" y="10"/>
      <point x="230" y="23" type="curve" smooth="yes"/>
      <point x="660" y="606" type="line" smooth="yes"/>
      <point x="677" y="629"/>
      <point x="665" y="650"/>
      <point x="644" y="650" type="curve" smooth="yes"/>
      <point x="631" y="650"/>
      <point x="624" y="640"/>
      <point x="614" y="627" type="curve" smooth="yes"/>
      <point x="184" y="44" type="line" smooth="yes"/>
      <point x="167" y="21"/>
      <point x="179" y="0"/>
    </contour>
    <contour>
      <point x="254" y="343" type="curve"/>
      <point x="346" y="343"/>
      <point x="428" y="443"/>
      <point x="428" y="554" type="curve" smooth="yes"/>
      <point x="428" y="611"/>
      <point x="391" y="650"/>
      <point x="330" y="650" type="curve"/>
      <point x="238" y="650"/>
      <point x="156" y="550"/>
      <point x="156" y="439" type="curve" smooth="yes"/>
      <point x="156" y="382"/>
      <point x="193" y="343"/>
    </contour>
    <contour>
      <point x="261" y="388" type="curve" smooth="yes"/>
      <point x="224" y="388"/>
      <point x="206" y="416"/>
      <point x="206" y="449" type="curve" smooth="yes"/>
      <point x="206" y="524"/>
      <point x="261" y="605"/>
      <point x="323" y="605" type="curve" smooth="yes"/>
      <point x="360" y="605"/>
      <point x="378" y="577"/>
      <point x="378" y="544" type="curve" smooth="yes"/>
      <point x="378" y="462"/>
      <point x="317" y="388"/>
    </contour>
    <contour>
      <point x="525" y="0" type="curve"/>
      <point x="617" y="0"/>
      <point x="699" y="100"/>
      <point x="699" y="211" type="curve" smooth="yes"/>
      <point x="699" y="268"/>
      <point x="662" y="307"/>
      <point x="601" y="307" type="curve"/>
      <point x="509" y="307"/>
      <point x="427" y="207"/>
      <point x="427" y="96" type="curve" smooth="yes"/>
      <point x="427" y="39"/>
      <point x="464" y="0"/>
    </contour>
    <contour>
      <point x="532" y="45" type="curve" smooth="yes"/>
      <point x="495" y="45"/>
      <point x="477" y="73"/>
      <point x="477" y="106" type="curve" smooth="yes"/>
      <point x="477" y="181"/>
      <point x="532" y="262"/>
      <point x="594" y="262" type="curve" smooth="yes"/>
      <point x="631" y="262"/>
      <point x="649" y="234"/>
      <point x="649" y="201" type="curve" smooth="yes"/>
      <point x="649" y="119"/>
      <point x="588" y="45"/>
    </contour>
  </outline>
</glyph>
<glyph name="quotesingle" format="2">
  <advance width="229"/>
  <unicode hex="0027"/>
  <outline>
    <contour>
      <point x="182" y="452" type="curve" smooth="yes"/>
      <point x="194" y="452"/>
      <point x="207" y="458"/>
      <point x="211" y="474" type="curve" smooth="yes"/>
      <point x="248" y="619" type="line" smooth="yes"/>
      <point x="253" y="638"/>
      <point x="239" y="650"/>
      <point x="226" y="650" type="curve" smooth="yes"/>
      <point x="214" y="650"/>
      <point x="201" y="643"/>
      <point x="197" y="626" type="curve" smooth="yes"/>
      <point x="160" y="482" type="line" smooth="yes"/>
      <point x="155" y="464"/>
      <point x="169" y="452"/>
    </contour>
  </outline>
</glyph>
<glyph name="hyphen" format="2">
  <advance width="338"/>
  <unicode hex="002D"/>
  <outline>
    <contour>
      <point x="100" y="177" type="curve" smooth="yes"/>
      <point x="248" y="177" type="line" smooth="yes"/>
      <point x="267" y="177"/>
      <point x="279" y="185"/>
      <point x="279" y="200" type="curve" smooth="yes"/>
      <point x="279" y="215"/>
      <point x="268" y="223"/>
      <point x="250" y="223" type="curve" smooth="yes"/>
      <point x="102" y="223" type="line" smooth="yes"/>
      <point x="83" y="223"/>
      <point x="71" y="215"/>
      <point x="71" y="200" type="curve" smooth="yes"/>
      <point x="71" y="185"/>
      <point x="82" y="177"/>
    </contour>
  </outline>
</glyph>
<glyph name="slash" format="2">
  <advance width="403"/>
  <unicode hex="002F"/>
  <outline>
    <contour>
      <point x="71.0" y="0.0" type="curve" smooth="yes"/>
      <point x="84.0" y="0.0"/>
      <point x="93" y="10"/>
      <point x="101.0" y="23.0" type="curve" smooth="yes"/>
      <point x="441" y="606" type="line" smooth="yes"/>
      <point x="455" y="629"/>
      <point x="446.0" y="650.0"/>
      <point x="425" y="650.0" type="curve" smooth="yes"/>
      <point x="412" y="650"/>
      <point x="403" y="640"/>
      <point x="395" y="627" type="curve" smooth="yes"/>
      <point x="55.0" y="44.0" type="line" smooth="yes"/>
      <point x="41" y="21"/>
      <point x="50.0" y="0.0"/>
    </contour>
  </outline>
</glyph>
<glyph name="zero" format="2">
  <advance width="424"/>
  <unicode hex="0030"/>
  <outline>
    <contour>
      <point x="180" y="0" type="curve" smooth="yes"/>
      <point x="282" y="0"/>
      <point x="374" y="135"/>
      <point x="421" y="353" type="curve" smooth="yes"/>
      <point x="461" y="537"/>
      <point x="423" y="650"/>
      <point x="322" y="650" type="curve" smooth="yes"/>
      <point x="197" y="650"/>
      <point x="103" y="503"/>
      <point x="75" y="266" type="curve" smooth="yes"/>
      <point x="56" y="102"/>
      <point x="96" y="0"/>
    </contour>
    <contour>
      <point x="181" y="46" type="curve" smooth="yes"/>
      <point x="131" y="46"/>
      <point x="111" y="133"/>
      <point x="128" y="275" type="curve" smooth="yes"/>
      <point x="152" y="478"/>
      <point x="224" y="604"/>
      <point x="316" y="604" type="curve" smooth="yes"/>
      <point x="382" y="604"/>
      <point x="402" y="507"/>
      <point x="368" y="350" type="curve" smooth="yes"/>
      <point x="327" y="162"/>
      <point x="256" y="46"/>
    </contour>
  </outline>
</glyph>
<glyph name="one" format="2">
  <advance width="228"/>
  <unicode hex="0031"/>
  <outline>
    <contour>
      <point x="69" y="0" type="curve" smooth="yes"/>
      <point x="91" y="0"/>
      <point x="97" y="13"/>
      <point x="99" y="23" type="curve" smooth="yes"/>
      <point x="245" y="617" type="line" smooth="yes"/>
      <point x="249" y="635"/>
      <point x="244" y="650"/>
      <point x="227" y="650" type="curve" smooth="yes"/>
      <point x="208" y="650"/>
      <point x="200" y="641"/>
      <point x="196" y="625" type="curve" smooth="yes"/>
      <point x="48" y="29" type="line" smooth="yes"/>
      <point x="44" y="14"/>
      <point x="51" y="0"/>
    </contour>
  </outline>
</glyph>
<glyph name="three" format="2">
  <advance width="440"/>
  <unicode hex="0033"/>
  <outline>
    <contour>
      <point x="194" y="0" type="curve" smooth="yes"/>
      <point x="284" y="0"/>
      <point x="364" y="56"/>
      <point x="391" y="165" type="curve" smooth="yes"/>
      <point x="420" y="280"/>
      <point x="348" y="362"/>
      <point x="214" y="377" type="curve"/>
      <point x="214" y="369" type="line"/>
      <point x="450" y="600" type="line" smooth="yes"/>
      <point x="464" y="614"/>
      <point x="468" y="619"/>
      <point x="468" y="629" type="curve" smooth="yes"/>
      <point x="468" y="642"/>
      <point x="458" y="650"/>
      <point x="444" y="650" type="curve" smooth="yes"/>
      <point x="197" y="650" type="line" smooth="yes"/>
      <point x="177" y="650"/>
      <point x="171" y="639"/>
      <point x="171" y="627" type="curve" smooth="yes"/>
      <point x="171" y="615"/>
      <point x="177" y="605"/>
      <point x="197" y="605" type="curve" smooth="yes"/>
      <point x="406" y="605" type="line"/>
      <point x="405" y="620" type="line"/>
      <point x="156" y="377" type="line" smooth="yes"/>
      <point x="138" y="359"/>
      <point x="145" y="335"/>
      <point x="172" y="333" type="curve" smooth="yes"/>
      <point x="304" y="325"/>
      <point x="367" y="273"/>
      <point x="340" y="163" type="curve" smooth="yes"/>
      <point x="322" y="85"/>
      <point x="259" y="45"/>
      <point x="195" y="45" type="curve" smooth="yes"/>
      <point x="145" y="45"/>
      <point x="100" y="87"/>
      <point x="88" y="155" type="curve" smooth="yes"/>
      <point x="84" y="178"/>
      <point x="74" y="182"/>
      <point x="61" y="182" type="curve" smooth="yes"/>
      <point x="50" y="182"/>
      <point x="35" y="173"/>
      <point x="41" y="141" type="curve" smooth="yes"/>
      <point x="56" y="54"/>
      <point x="118" y="0"/>
    </contour>
  </outline>
</glyph>
<glyph name="seven" format="2">
  <advance width="414"/>
  <unicode hex="0037"/>
  <outline>
    <contour>
      <point x="110" y="0" type="curve" smooth="yes"/>
      <point x="122" y="0"/>
      <point x="130" y="6"/>
      <point x="140" y="24" type="curve" smooth="yes"/>
      <point x="472" y="606" type="line"/>
      <point x="488" y="636"/>
      <point x="480" y="650"/>
      <point x="454" y="650" type="curve"/>
      <point x="184" y="650" type="line" smooth="yes"/>
      <point x="166" y="650"/>
      <point x="157" y="639"/>
      <point x="157" y="628" type="curve" smooth="yes"/>
      <point x="157" y="616"/>
      <point x="166" y="605"/>
      <point x="184" y="605" type="curve" smooth="yes"/>
      <point x="450" y="605" type="line"/>
      <point x="431" y="632" type="line"/>
      <point x="96" y="44" type="line" smooth="yes"/>
      <point x="77" y="11"/>
      <point x="97" y="0"/>
    </contour>
  </outline>
</glyph>
<glyph name="eight" format="2">
  <advance width="386"/>
  <unicode hex="0038"/>
  <outline>
    <contour>
      <point x="153" y="0" type="curve" smooth="yes"/>
      <point x="238" y="0"/>
      <point x="314" y="70"/>
      <point x="337" y="164" type="curve" smooth="yes"/>
      <point x="354" y="233"/>
      <point x="321" y="307"/>
      <point x="250" y="358" type="curve"/>
      <point x="220" y="319" type="line"/>
      <point x="274" y="281"/>
      <point x="299" y="224"/>
      <point x="286" y="168" type="curve" smooth="yes"/>
      <point x="269" y="98"/>
      <point x="218" y="46"/>
      <point x="159" y="46" type="curve" smooth="yes"/>
      <point x="106" y="46"/>
      <point x="76" y="91"/>
      <point x="89" y="152" type="curve" smooth="yes"/>
      <point x="102" y="209"/>
      <point x="155" y="267"/>
      <point x="246" y="322" type="curve" smooth="yes"/>
      <point x="337" y="378"/>
      <point x="392" y="439"/>
      <point x="408" y="503" type="curve" smooth="yes"/>
      <point x="429" y="587"/>
      <point x="381" y="650"/>
      <point x="296" y="650" type="curve" smooth="yes"/>
      <point x="223" y="650"/>
      <point x="158" y="611"/>
      <point x="136" y="524" type="curve" smooth="yes"/>
      <point x="118" y="452"/>
      <point x="148" y="376"/>
      <point x="216" y="326" type="curve"/>
      <point x="246" y="363" type="line"/>
      <point x="195" y="399"/>
      <point x="173" y="459"/>
      <point x="187" y="521" type="curve" smooth="yes"/>
      <point x="201" y="578"/>
      <point x="246" y="605"/>
      <point x="287" y="605" type="curve" smooth="yes"/>
      <point x="342" y="605"/>
      <point x="372" y="561"/>
      <point x="358" y="503" type="curve" smooth="yes"/>
      <point x="346" y="458"/>
      <point x="300" y="411"/>
      <point x="220" y="362" type="curve" smooth="yes"/>
      <point x="116" y="299"/>
      <point x="55" y="228"/>
      <point x="38" y="151" type="curve" smooth="yes"/>
      <point x="18" y="65"/>
      <point x="68" y="0"/>
    </contour>
  </outline>
</glyph>
<glyph name="colon" format="2">
  <advance width="252"/>
  <unicode hex="003A"/>
  <outline>
    <contour>
      <point x="88" y="0" type="curve" smooth="yes"/>
      <point x="108" y="0"/>
      <point x="126" y="18"/>
      <point x="126" y="39" type="curve" smooth="yes"/>
      <point x="126" y="59"/>
      <point x="108" y="76"/>
      <point x="88" y="76" type="curve" smooth="yes"/>
      <point x="67" y="76"/>
      <point x="51" y="59"/>
      <point x="51" y="39" type="curve" smooth="yes"/>
      <point x="51" y="19"/>
      <point x="67" y="0"/>
    </contour>
    <contour>
      <point x="156" y="273" type="curve" smooth="yes"/>
      <point x="176" y="273"/>
      <point x="194" y="291"/>
      <point x="194" y="312" type="curve" smooth="yes"/>
      <point x="194" y="332"/>
      <point x="176" y="349"/>
      <point x="156" y="349" type="curve" smooth="yes"/>
      <point x="135" y="349"/>
      <point x="119" y="332"/>
      <point x="119" y="312" type="curve" smooth="yes"/>
      <point x="119" y="292"/>
      <point x="135" y="273"/>
    </contour>
  </outline>
</glyph>
<glyph name="less" format="2">
  <advance width="426"/>
  <unicode hex="003C"/>
  <outline>
    <contour>
      <point x="278" y="102" type="line" smooth="yes"/>
      <point x="293" y="91"/>
      <point x="306" y="91"/>
      <point x="315" y="100" type="curve" smooth="yes"/>
      <point x="324" y="111"/>
      <point x="322" y="126"/>
      <point x="307" y="137" type="curve" smooth="yes"/>
      <point x="142" y="259" type="line"/>
      <point x="139" y="229" type="line"/>
      <point x="357" y="325" type="line" smooth="yes"/>
      <point x="377" y="334"/>
      <point x="381" y="344"/>
      <point x="378" y="356" type="curve" smooth="yes"/>
      <point x="375" y="366"/>
      <point x="364" y="376"/>
      <point x="345" y="368" type="curve"/>
      <point x="113" y="266" type="line" smooth="yes"/>
      <point x="105" y="262"/>
      <point x="99" y="254"/>
      <point x="99" y="246" type="curve" smooth="yes"/>
      <point x="99" y="239"/>
      <point x="102" y="233"/>
      <point x="109" y="227" type="curve" smooth="yes"/>
    </contour>
  </outline>
</glyph>
<glyph name="question" format="2">
  <advance width="424"/>
  <unicode hex="003F"/>
  <outline>
    <contour>
      <point x="163" y="0" type="curve" smooth="yes"/>
      <point x="183" y="0"/>
      <point x="201" y="18"/>
      <point x="201" y="39" type="curve" smooth="yes"/>
      <point x="201" y="59"/>
      <point x="183" y="76"/>
      <point x="163" y="76" type="curve" smooth="yes"/>
      <point x="142" y="76"/>
      <point x="126" y="59"/>
      <point x="126" y="39" type="curve" smooth="yes"/>
      <point x="126" y="19"/>
      <point x="142" y="0"/>
    </contour>
    <contour>
      <point x="187" y="175" type="curve" smooth="yes"/>
      <point x="198" y="175"/>
      <point x="211" y="181"/>
      <point x="216" y="200" type="curve" smooth="yes"/>
      <point x="240" y="298" type="line"/>
      <point x="219" y="280" type="line"/>
      <point x="352" y="280"/>
      <point x="455" y="379"/>
      <point x="454" y="512" type="curve" smooth="yes"/>
      <point x="453" y="597"/>
      <point x="399" y="650.0"/>
      <point x="312" y="650.0" type="curve" smooth="yes"/>
      <point x="224" y="650"/>
      <point x="148" y="589"/>
      <point x="122" y="489" type="curve" smooth="yes"/>
      <point x="117" y="468"/>
      <point x="127" y="457"/>
      <point x="143" y="457" type="curve" smooth="yes"/>
      <point x="154" y="457"/>
      <point x="167" y="463"/>
      <point x="172" y="482" type="curve" smooth="yes"/>
      <point x="191" y="558"/>
      <point x="242" y="605"/>
      <point x="312" y="605" type="curve" smooth="yes"/>
      <point x="370" y="605"/>
      <point x="406.0" y="567.0"/>
      <point x="406.0" y="506.0" type="curve" smooth="yes"/>
      <point x="406.0" y="404.0"/>
      <point x="334" y="326"/>
      <point x="237" y="326" type="curve" smooth="yes"/>
      <point x="206" y="326"/>
      <point x="194" y="316"/>
      <point x="188" y="293" type="curve" smooth="yes"/>
      <point x="166" y="207" type="line" smooth="yes"/>
      <point x="161" y="186"/>
      <point x="171" y="175"/>
    </contour>
  </outline>
</glyph>
<glyph name="A" format="2">
  <advance width="484"/>
  <unicode hex="0041"/>
  <outline>
    <contour>
      <point x="4" y="0" type="curve" smooth="yes"/>
      <point x="24" y="0"/>
      <point x="29" y="5"/>
      <point x="40" y="23" type="curve" smooth="yes"/>
      <point x="380" y="575" type="line"/>
      <point x="364" y="579" type="line"/>
      <point x="370" y="21" type="line" smooth="yes"/>
      <point x="370" y="11"/>
      <point x="373" y="0"/>
      <point x="394" y="0" type="curve" smooth="yes"/>
      <point x="412" y="0"/>
      <point x="419" y="9"/>
      <point x="419" y="24" type="curve" smooth="yes"/>
      <point x="411" y="630" type="line" smooth="yes"/>
      <point x="411" y="640"/>
      <point x="402" y="650"/>
      <point x="388" y="650" type="curve" smooth="yes"/>
      <point x="368" y="650"/>
      <point x="364" y="640"/>
      <point x="356" y="627" type="curve" smooth="yes"/>
      <point x="-10" y="33" type="line" smooth="yes"/>
      <point x="-22" y="14"/>
      <point x="-11" y="0"/>
    </contour>
    <contour>
      <point x="200" y="327" type="line"/>
      <point x="391" y="327" type="line"/>
      <point x="390" y="372" type="line"/>
      <point x="225" y="372" type="line"/>
    </contour>
  </outline>
</glyph>
<glyph name="C" format="2">
  <advance width="468"/>
  <unicode hex="0043"/>
  <outline>
    <contour>
      <point x="209" y="0" type="curve" smooth="yes"/>
      <point x="268" y="0"/>
      <point x="339" y="47"/>
      <point x="400" y="140" type="curve" smooth="yes"/>
      <point x="421" y="173"/>
      <point x="425" y="185"/>
      <point x="425" y="191" type="curve" smooth="yes"/>
      <point x="426" y="203"/>
      <point x="416" y="209"/>
      <point x="405" y="210" type="curve" smooth="yes"/>
      <point x="389" y="211"/>
      <point x="381" y="198"/>
      <point x="365" y="172" type="curve" smooth="yes"/>
      <point x="309" y="88"/>
      <point x="254" y="46"/>
      <point x="210" y="46" type="curve" smooth="yes"/>
      <point x="141" y="46"/>
      <point x="110" y="133"/>
      <point x="127" y="275" type="curve" smooth="yes"/>
      <point x="151" y="478"/>
      <point x="232" y="604"/>
      <point x="345" y="604" type="curve" smooth="yes"/>
      <point x="382" y="604"/>
      <point x="409" y="583"/>
      <point x="424" y="542" type="curve" smooth="yes"/>
      <point x="430" y="528"/>
      <point x="443" y="521"/>
      <point x="458" y="526" type="curve" smooth="yes"/>
      <point x="471" y="530"/>
      <point x="476" y="540"/>
      <point x="473" y="553" type="curve" smooth="yes"/>
      <point x="456" y="617"/>
      <point x="415" y="650"/>
      <point x="351" y="650" type="curve" smooth="yes"/>
      <point x="208" y="650"/>
      <point x="102" y="503"/>
      <point x="74" y="266" type="curve" smooth="yes"/>
      <point x="55" y="102"/>
      <point x="106" y="0"/>
    </contour>
  </outline>
</glyph>
<glyph name="R" format="2">
  <advance width="524"/>
  <unicode hex="0052"/>
  <outline>
    <contour>
      <point x="147" y="328" type="line"/>
      <point x="343" y="328"/>
      <point x="517" y="337"/>
      <point x="553" y="481" type="curve" smooth="yes"/>
      <point x="583" y="600"/>
      <point x="445" y="650"/>
      <point x="226" y="650" type="curve"/>
      <point x="228" y="604" type="line"/>
      <point x="413" y="604"/>
      <point x="524" y="572"/>
      <point x="504" y="491" type="curve" smooth="yes"/>
      <point x="477" y="383"/>
      <point x="324" y="374"/>
      <point x="158" y="374" type="curve"/>
    </contour>
    <contour>
      <point x="415" y="0" type="curve" smooth="yes"/>
      <point x="437" y="0"/>
      <point x="447" y="26"/>
      <point x="435" y="42" type="curve" smooth="yes"/>
      <point x="207" y="341" type="line"/>
      <point x="144" y="341" type="line"/>
      <point x="390" y="19" type="line" smooth="yes"/>
      <point x="400" y="6"/>
      <point x="407" y="0"/>
    </contour>
    <contour>
      <point x="68" y="0" type="curve" smooth="yes"/>
      <point x="90" y="0"/>
      <point x="96" y="14"/>
      <point x="99" y="28" type="curve" smooth="yes"/>
      <point x="245" y="618" type="line" smooth="yes"/>
      <point x="249" y="636"/>
      <point x="248" y="650"/>
      <point x="227" y="650" type="curve" smooth="yes"/>
      <point x="205" y="650"/>
      <point x="200" y="641"/>
      <point x="196" y="625" type="curve" smooth="yes"/>
      <point x="49" y="34" type="line" smooth="yes"/>
      <point x="45" y="17"/>
      <point x="50" y="0"/>
    </contour>
  </outline>
</glyph>
<glyph name="T" format="2">
  <advance width="458"/>
  <unicode hex="0054"/>
  <outline>
    <contour>
      <point x="188" y="0" type="curve" smooth="yes"/>
      <point x="206" y="0"/>
      <point x="214" y="13"/>
      <point x="216" y="23" type="curve" smooth="yes"/>
      <point x="367" y="626" type="line"/>
      <point x="315" y="626" type="line"/>
      <point x="166" y="31" type="line" smooth="yes"/>
      <point x="163" y="17"/>
      <point x="170" y="0"/>
    </contour>
    <contour>
      <point x="163" y="605" type="curve" smooth="yes"/>
      <point x="517" y="605" type="line" smooth="yes"/>
      <point x="537" y="605"/>
      <point x="543" y="615"/>
      <point x="543" y="627" type="curve" smooth="yes"/>
      <point x="543" y="639"/>
      <point x="537" y="650"/>
      <point x="517" y="650" type="curve" smooth="yes"/>
      <point x="163" y="650" type="line" smooth="yes"/>
      <point x="143" y="650"/>
      <point x="137" y="639"/>
      <point x="137" y="627" type="curve" smooth="yes"/>
      <point x="137" y="615"/>
      <point x="143" y="605"/>
    </contour>
  </outline>
</glyph>
<glyph name="W" format="2">
  <advance width="717"/>
  <unicode hex="0057"/>
  <outline>
    <contour>
      <point x="175" y="0" type="curve"/>
      <point x="189" y="0"/>
      <point x="200" y="8"/>
      <point x="208" y="25" type="curve" smooth="yes"/>
      <point x="446" y="552" type="line"/>
      <point x="441" y="555" type="line"/>
      <point x="449" y="28" type="line" smooth="yes"/>
      <point x="449" y="9"/>
      <point x="457" y="0"/>
      <point x="474" y="0" type="curve"/>
      <point x="488" y="0"/>
      <point x="499" y="8"/>
      <point x="507" y="25" type="curve" smooth="yes"/>
      <point x="780" y="618" type="line" smooth="yes"/>
      <point x="788" y="635"/>
      <point x="778" y="650"/>
      <point x="760" y="650" type="curve" smooth="yes"/>
      <point x="746" y="650"/>
      <point x="735" y="640"/>
      <point x="728" y="625" type="curve" smooth="yes"/>
      <point x="486" y="89" type="line"/>
      <point x="494" y="86" type="line"/>
      <point x="486" y="625" type="line" smooth="yes"/>
      <point x="486" y="640"/>
      <point x="478" y="650"/>
      <point x="461" y="650" type="curve" smooth="yes"/>
      <point x="446" y="650"/>
      <point x="435" y="640"/>
      <point x="428" y="625" type="curve" smooth="yes"/>
      <point x="187" y="89" type="line"/>
      <point x="195" y="86" type="line"/>
      <point x="187" y="625" type="line" smooth="yes"/>
      <point x="187" y="640"/>
      <point x="177" y="650"/>
      <point x="162" y="650" type="curve" smooth="yes"/>
      <point x="147" y="650"/>
      <point x="137" y="640"/>
      <point x="137" y="624" type="curve" smooth="yes"/>
      <point x="150" y="28" type="line" smooth="yes"/>
      <point x="150" y="9"/>
      <point x="158" y="0"/>
    </contour>
  </outline>
</glyph>
<glyph name="X" format="2">
  <advance width="481"/>
  <unicode hex="0058"/>
  <outline>
    <contour>
      <point x="-5" y="6" type="curve" smooth="yes"/>
      <point x="6" y="-3"/>
      <point x="23" y="-3"/>
      <point x="36" y="12" type="curve" smooth="yes"/>
      <point x="276" y="297" type="line"/>
      <point x="287" y="300" type="line"/>
      <point x="548" y="609" type="line" smooth="yes"/>
      <point x="561" y="624"/>
      <point x="557" y="638"/>
      <point x="548" y="645" type="curve" smooth="yes"/>
      <point x="538" y="653"/>
      <point x="521" y="652"/>
      <point x="508" y="637" type="curve" smooth="yes"/>
      <point x="268" y="353" type="line"/>
      <point x="257" y="350" type="line"/>
      <point x="-6" y="38" type="line" smooth="yes"/>
      <point x="-16" y="26"/>
      <point x="-14" y="13"/>
    </contour>
    <contour>
      <point x="384" y="3" type="curve" smooth="yes"/>
      <point x="394" y="8"/>
      <point x="399" y="20"/>
      <point x="394" y="35" type="curve" smooth="yes"/>
      <point x="189" y="631" type="line" smooth="yes"/>
      <point x="182" y="650"/>
      <point x="163" y="654"/>
      <point x="151" y="649" type="curve" smooth="yes"/>
      <point x="139" y="645"/>
      <point x="136" y="632"/>
      <point x="142" y="614" type="curve" smooth="yes"/>
      <point x="346" y="21" type="line" smooth="yes"/>
      <point x="353" y="2"/>
      <point x="371" y="-3"/>
    </contour>
  </outline>
</glyph>
<glyph name="Z" format="2">
  <advance width="521"/>
  <unicode hex="005A"/>
  <outline>
    <contour>
      <point x="34" y="0" type="curve" smooth="yes"/>
      <point x="410" y="0" type="line" smooth="yes"/>
      <point x="430" y="0"/>
      <point x="436" y="11"/>
      <point x="436" y="23" type="curve" smooth="yes"/>
      <point x="436" y="35"/>
      <point x="430" y="46"/>
      <point x="410" y="46" type="curve" smooth="yes"/>
      <point x="53" y="46" type="line"/>
      <point x="64" y="23" type="line"/>
      <point x="548" y="609" type="line" smooth="yes"/>
      <point x="560" y="624"/>
      <point x="557" y="638"/>
      <point x="550" y="644" type="curve" smooth="yes"/>
      <point x="545" y="648"/>
      <point x="540" y="650"/>
      <point x="531" y="650" type="curve" smooth="yes"/>
      <point x="183" y="650" type="line" smooth="yes"/>
      <point x="163" y="650"/>
      <point x="157" y="639"/>
      <point x="157" y="627" type="curve" smooth="yes"/>
      <point x="157" y="615"/>
      <point x="163" y="604"/>
      <point x="183" y="604" type="curve" smooth="yes"/>
      <point x="510" y="604" type="line"/>
      <point x="499" y="627" type="line"/>
      <point x="12" y="38" type="line" smooth="yes"/>
      <point x="5" y="29"/>
      <point x="4" y="16"/>
      <point x="10" y="8" type="curve" smooth="yes"/>
      <point x="13" y="4"/>
      <point x="23" y="0"/>
    </contour>
  </outline>
</glyph>
<glyph name="backslash" format="2">
  <advance width="403"/>
  <unicode hex="005C"/>
  <outline>
    <contour>
      <point x="302" y="0" type="curve" smooth="yes"/>
      <point x="319" y="0"/>
      <point x="329" y="15"/>
      <point x="325" y="34" type="curve" smooth="yes"/>
      <point x="188" y="627" type="line" smooth="yes"/>
      <point x="185" y="639"/>
      <point x="181" y="650"/>
      <point x="164" y="650" type="curve" smooth="yes"/>
      <point x="147" y="650"/>
      <point x="137" y="635"/>
      <point x="141" y="616" type="curve" smooth="yes"/>
      <point x="278" y="23" type="line" smooth="yes"/>
      <point x="281" y="11"/>
      <point x="285" y="0"/>
    </contour>
  </outline>
</glyph>
<glyph name="bracketright" format="2">
  <advance width="358"/>
  <unicode hex="005D"/>
  <outline>
    <contour>
      <point x="10" y="-199" type="curve" smooth="yes"/>
      <point x="148" y="-199" type="line" smooth="yes"/>
      <point x="168" y="-199"/>
      <point x="177" y="-190"/>
      <point x="181" y="-174" type="curve" smooth="yes"/>
      <point x="380" y="622" type="line" smooth="yes"/>
      <point x="383" y="636"/>
      <point x="377" y="650"/>
      <point x="358" y="650" type="curve" smooth="yes"/>
      <point x="209" y="650" type="line" smooth="yes"/>
      <point x="192" y="650"/>
      <point x="183" y="638"/>
      <point x="183" y="627" type="curve" smooth="yes"/>
      <point x="183" y="616"/>
      <point x="191" y="605"/>
      <point x="209" y="605" type="curve" smooth="yes"/>
      <point x="354" y="605" type="line"/>
      <point x="331" y="634" type="line"/>
      <point x="127" y="-183" type="line"/>
      <point x="164" y="-154" type="line"/>
      <point x="10" y="-154" type="line" smooth="yes"/>
      <point x="-7" y="-154"/>
      <point x="-16" y="-165"/>
      <point x="-17" y="-176" type="curve" smooth="yes"/>
      <point x="-18" y="-187"/>
      <point x="-9.0" y="-199.0"/>
    </contour>
  </outline>
</glyph>
<glyph name="a" format="2">
  <advance width="331"/>
  <unicode hex="0061"/>
  <outline>
    <contour>
      <point x="114" y="0" type="curve" smooth="yes"/>
      <point x="185" y="0"/>
      <point x="237" y="87"/>
      <point x="278" y="228" type="curve" smooth="yes"/>
      <point x="298" y="297"/>
      <point x="277" y="354"/>
      <point x="214" y="354" type="curve" smooth="yes"/>
      <point x="134" y="354"/>
      <point x="67" y="276"/>
      <point x="39" y="156" type="curve" smooth="yes"/>
      <point x="20" y="76"/>
      <point x="38" y="0"/>
    </contour>
    <contour>
      <point x="124" y="45" type="curve" smooth="yes"/>
      <point x="84" y="45"/>
      <point x="73" y="87"/>
      <point x="93" y="169" type="curve" smooth="yes"/>
      <point x="111" y="247"/>
      <point x="160" y="309"/>
      <point x="206" y="309" type="curve" smooth="yes"/>
      <point x="252" y="309"/>
      <point x="269" y="281"/>
      <point x="257" y="234" type="curve" smooth="yes"/>
      <point x="231" y="126"/>
      <point x="174" y="45"/>
    </contour>
    <contour>
      <point x="225" y="0" type="curve" smooth="yes"/>
      <point x="250" y="0"/>
      <point x="253" y="14"/>
      <point x="258" y="32" type="curve" smooth="yes"/>
      <point x="331" y="322" type="line" smooth="yes"/>
      <point x="335" y="338"/>
      <point x="331" y="350"/>
      <point x="314" y="350" type="curve" smooth="yes"/>
      <point x="295" y="350"/>
      <point x="285" y="343"/>
      <point x="280" y="325" type="curve" smooth="yes"/>
      <point x="207" y="35" type="line" smooth="yes"/>
      <point x="203" y="18"/>
      <point x="203" y="0"/>
    </contour>
  </outline>
</glyph>
<glyph name="b" format="2">
  <advance width="336"/>
  <unicode hex="0062"/>
  <outline>
    <contour>
      <point x="47" y="0" type="curve" smooth="yes"/>
      <point x="72" y="0"/>
      <point x="76" y="14"/>
      <point x="80" y="32" type="curve" smooth="yes"/>
      <point x="228" y="622" type="line" smooth="yes"/>
      <point x="232" y="638"/>
      <point x="228" y="650"/>
      <point x="211" y="650" type="curve" smooth="yes"/>
      <point x="192" y="650"/>
      <point x="182" y="643"/>
      <point x="177" y="625" type="curve" smooth="yes"/>
      <point x="29" y="35" type="line" smooth="yes"/>
      <point x="25" y="18"/>
      <point x="25" y="0"/>
    </contour>
    <contour>
      <point x="137" y="0" type="curve" smooth="yes"/>
      <point x="217" y="0"/>
      <point x="284" y="74"/>
      <point x="311" y="182" type="curve" smooth="yes"/>
      <point x="337" y="286"/>
      <point x="304" y="354"/>
      <point x="237" y="354" type="curve" smooth="yes"/>
      <point x="170" y="354"/>
      <point x="111" y="285"/>
      <point x="83" y="172" type="curve" smooth="yes"/>
      <point x="56" y="66"/>
      <point x="77" y="0"/>
    </contour>
    <contour>
      <point x="148" y="45" type="curve" smooth="yes"/>
      <point x="108" y="45"/>
      <point x="94" y="85"/>
      <point x="113" y="163" type="curve" smooth="yes"/>
      <point x="134" y="248"/>
      <point x="178" y="309"/>
      <point x="226" y="309" type="curve" smooth="yes"/>
      <point x="266" y="309"/>
      <point x="280" y="269"/>
      <point x="261" y="191" type="curve" smooth="yes"/>
      <point x="240" y="106"/>
      <point x="196" y="45"/>
    </contour>
  </outline>
</glyph>
<glyph name="d" format="2">
  <advance width="414"/>
  <unicode hex="0064"/>
  <outline>
    <contour>
      <point x="277" y="0" type="curve" smooth="yes"/>
      <point x="305" y="0"/>
      <point x="339" y="26"/>
      <point x="379" y="77" type="curve" smooth="yes"/>
      <point x="399" y="103"/>
      <point x="403" y="109"/>
      <point x="403" y="120" type="curve" smooth="yes"/>
      <point x="403" y="134"/>
      <point x="395" y="143"/>
      <point x="383" y="143" type="curve" smooth="yes"/>
      <point x="370" y="143"/>
      <point x="363" y="134"/>
      <point x="345" y="110" type="curve" smooth="yes"/>
      <point x="314" y="67"/>
      <point x="293" y="45"/>
      <point x="282" y="45" type="curve" smooth="yes"/>
      <point x="266" y="45"/>
      <point x="265" y="79"/>
      <point x="278" y="133" type="curve" smooth="yes"/>
      <point x="401" y="622" type="line" smooth="yes"/>
      <point x="405" y="638"/>
      <point x="401" y="650"/>
      <point x="384" y="650" type="curve" smooth="yes"/>
      <point x="365" y="650"/>
      <point x="355" y="643"/>
      <point x="350" y="625" type="curve" smooth="yes"/>
      <point x="229" y="144" type="line" smooth="yes"/>
      <point x="207" y="55"/>
      <point x="226" y="0"/>
    </contour>
    <contour>
      <point x="117" y="0" type="curve" smooth="yes"/>
      <point x="184" y="0"/>
      <point x="243" y="69"/>
      <point x="271" y="182" type="curve" smooth="yes"/>
      <point x="298" y="288"/>
      <point x="277" y="354"/>
      <point x="217" y="354" type="curve" smooth="yes"/>
      <point x="137" y="354"/>
      <point x="70" y="280"/>
      <point x="43" y="172" type="curve" smooth="yes"/>
      <point x="17" y="68"/>
      <point x="50" y="0"/>
    </contour>
    <contour>
      <point x="128" y="45" type="curve" smooth="yes"/>
      <point x="88" y="45"/>
      <point x="74" y="85"/>
      <point x="93" y="163" type="curve" smooth="yes"/>
      <point x="114" y="248"/>
      <point x="158" y="309"/>
      <point x="206" y="309" type="curve" smooth="yes"/>
      <point x="246" y="309"/>
      <point x="260" y="269"/>
      <point x="241" y="191" type="curve" smooth="yes"/>
      <point x="220" y="106"/>
      <point x="176" y="45"/>
    </contour>
  </outline>
</glyph>
<glyph name="e" format="2">
  <advance width="347"/>
  <unicode hex="0065"/>
  <outline>
    <contour>
      <point x="117" y="0" type="curve" smooth="yes"/>
      <point x="182" y="0"/>
      <point x="247" y="42"/>
      <point x="320" y="126" type="curve" smooth="yes"/>
      <point x="330" y="138"/>
      <point x="329" y="153"/>
      <point x="319" y="161" type="curve" smooth="yes"/>
      <point x="307" y="170"/>
      <point x="291" y="169"/>
      <point x="282" y="158" type="curve" smooth="yes"/>
      <point x="215" y="83"/>
      <point x="166" y="45"/>
      <point x="128" y="45" type="curve" smooth="yes"/>
      <point x="88" y="45"/>
      <point x="74" y="85"/>
      <point x="93" y="163" type="curve" smooth="yes"/>
      <point x="114" y="248"/>
      <point x="158" y="309"/>
      <point x="206" y="309" type="curve" smooth="yes"/>
      <point x="225" y="309"/>
      <point x="239" y="300"/>
      <point x="239" y="287" type="curve" smooth="yes"/>
      <point x="239" y="245"/>
      <point x="165" y="194"/>
      <point x="66" y="166" type="curve"/>
      <point x="56" y="111" type="line"/>
      <point x="189" y="152"/>
      <point x="289" y="228"/>
      <point x="289" y="290" type="curve" smooth="yes"/>
      <point x="289" y="327"/>
      <point x="258" y="354"/>
      <point x="217" y="354" type="curve" smooth="yes"/>
      <point x="137" y="354"/>
      <point x="70" y="280"/>
      <point x="43" y="172" type="curve" smooth="yes"/>
      <point x="17" y="68"/>
      <point x="50" y="0"/>
    </contour>
  </outline>
</glyph>
<glyph name="h" format="2">
  <advance width="374"/>
  <unicode hex="0068"/>
  <outline>
    <contour>
      <point x="269" y="-1" type="curve" smooth="yes"/>
      <point x="294" y="-1"/>
      <point x="297" y="13"/>
      <point x="302" y="31" type="curve" smooth="yes"/>
      <point x="340" y="183" type="line" smooth="yes"/>
      <point x="370" y="301"/>
      <point x="356" y="354"/>
      <point x="292" y="354" type="curve" smooth="yes"/>
      <point x="240" y="354"/>
      <point x="167" y="290"/>
      <point x="120" y="209" type="curve"/>
      <point x="96" y="96" type="line"/>
      <point x="115" y="168"/>
      <point x="235" y="308"/>
      <point x="280" y="308" type="curve" smooth="yes"/>
      <point x="307" y="308"/>
      <point x="310" y="270"/>
      <point x="290" y="188" type="curve" smooth="yes"/>
      <point x="251" y="34" type="line" smooth="yes"/>
      <point x="247" y="17"/>
      <point x="247" y="-1"/>
    </contour>
    <contour>
      <point x="47" y="0" type="curve" smooth="yes"/>
      <point x="72" y="0"/>
      <point x="75" y="14"/>
      <point x="80" y="32" type="curve" smooth="yes"/>
      <point x="228" y="622" type="line" smooth="yes"/>
      <point x="232" y="638"/>
      <point x="228" y="649"/>
      <point x="211" y="650" type="curve" smooth="yes"/>
      <point x="192" y="651"/>
      <point x="182" y="643"/>
      <point x="177" y="625" type="curve" smooth="yes"/>
      <point x="29" y="35" type="line" smooth="yes"/>
      <point x="25" y="18"/>
      <point x="25" y="0"/>
    </contour>
  </outline>
</glyph>
<glyph name="i" format="2">
  <advance width="163"/>
  <unicode hex="0069"/>
  <outline>
    <contour>
      <point x="47" y="0" type="curve" smooth="yes"/>
      <point x="72" y="0"/>
      <point x="75" y="14"/>
      <point x="80" y="32" type="curve" smooth="yes"/>
      <point x="153" y="322" type="line" smooth="yes"/>
      <point x="157" y="338"/>
      <point x="153" y="350"/>
      <point x="136" y="350" type="curve" smooth="yes"/>
      <point x="117" y="350"/>
      <point x="107" y="343"/>
      <point x="102" y="325" type="curve" smooth="yes"/>
      <point x="29" y="35" type="line" smooth="yes"/>
      <point x="25" y="18"/>
      <point x="25" y="0"/>
    </contour>
    <contour>
      <point x="164" y="438" type="curve" smooth="yes"/>
      <point x="181" y="438"/>
      <point x="195" y="453"/>
      <point x="195" y="468" type="curve" smooth="yes"/>
      <point x="195" y="485"/>
      <point x="179" y="497"/>
      <point x="164" y="497" type="curve" smooth="yes"/>
      <point x="146" y="497"/>
      <point x="134" y="482"/>
      <point x="134" y="468" type="curve" smooth="yes"/>
      <point x="134" y="453"/>
      <point x="147" y="438"/>
    </contour>
  </outline>
</glyph>
<glyph name="j" format="2">
  <advance width="163"/>
  <unicode hex="006A"/>
  <outline>
    <contour>
      <point x="-74" y="-300" type="curve" smooth="yes"/>
      <point x="-28" y="-300"/>
      <point x="4" y="-273"/>
      <point x="17" y="-220" type="curve" smooth="yes"/>
      <point x="153" y="322" type="line" smooth="yes"/>
      <point x="157" y="338"/>
      <point x="153" y="350"/>
      <point x="136" y="350" type="curve" smooth="yes"/>
      <point x="117" y="350"/>
      <point x="107" y="343"/>
      <point x="102" y="325" type="curve" smooth="yes"/>
      <point x="-33" y="-208" type="line" smooth="yes"/>
      <point x="-41" y="-239"/>
      <point x="-53" y="-255"/>
      <point x="-70" y="-255" type="curve" smooth="yes"/>
      <point x="-83" y="-255"/>
      <point x="-94" y="-240.0"/>
      <point x="-99" y="-225.0" type="curve" smooth="yes"/>
      <point x="-104" y="-209.0"/>
      <point x="-113" y="-206"/>
      <point x="-128" y="-210" type="curve" smooth="yes"/>
      <point x="-145" y="-215"/>
      <point x="-152" y="-225"/>
      <point x="-146" y="-243" type="curve" smooth="yes"/>
      <point x="-134" y="-278"/>
      <point x="-106" y="-300"/>
    </contour>
    <contour>
      <point x="164" y="438" type="curve" smooth="yes"/>
      <point x="181" y="438"/>
      <point x="195" y="453"/>
      <point x="195" y="468" type="curve" smooth="yes"/>
      <point x="195" y="485"/>
      <point x="179" y="497"/>
      <point x="164" y="497" type="curve" smooth="yes"/>
      <point x="146" y="497"/>
      <point x="134" y="482"/>
      <point x="134" y="468" type="curve" smooth="yes"/>
      <point x="134" y="453"/>
      <point x="147" y="438"/>
    </contour>
  </outline>
</glyph>
<glyph name="n" format="2">
  <advance width="364"/>
  <unicode hex="006E"/>
  <outline>
    <contour>
      <point x="259" y="0" type="curve" smooth="yes"/>
      <point x="284" y="0"/>
      <point x="287" y="14"/>
      <point x="292" y="32" type="curve" smooth="yes"/>
      <point x="330" y="183" type="line" smooth="yes"/>
      <point x="360" y="301"/>
      <point x="346" y="354"/>
      <point x="282" y="354" type="curve" smooth="yes"/>
      <point x="230" y="354"/>
      <point x="157" y="290"/>
      <point x="110" y="209" type="curve"/>
      <point x="86" y="96" type="line"/>
      <point x="105" y="168"/>
      <point x="225" y="308"/>
      <point x="270" y="308" type="curve" smooth="yes"/>
      <point x="297" y="308"/>
      <point x="301" y="270"/>
      <point x="280" y="188" type="curve" smooth="yes"/>
      <point x="241" y="35" type="line" smooth="yes"/>
      <point x="237" y="18"/>
      <point x="237" y="0"/>
    </contour>
    <contour>
      <point x="37" y="0" type="curve" smooth="yes"/>
      <point x="62" y="0"/>
      <point x="65" y="14"/>
      <point x="70" y="32" type="curve" smooth="yes"/>
      <point x="143" y="322" type="line" smooth="yes"/>
      <point x="147" y="338"/>
      <point x="143" y="350"/>
      <point x="126" y="350" type="curve" smooth="yes"/>
      <point x="107" y="350"/>
      <point x="97" y="343"/>
      <point x="92" y="325" type="curve" smooth="yes"/>
      <point x="19" y="35" type="line" smooth="yes"/>
      <point x="15" y="18"/>
      <point x="15" y="0"/>
    </contour>
  </outline>
</glyph>
<glyph name="p" format="2">
  <advance width="326"/>
  <unicode hex="0070"/>
  <outline>
    <contour>
      <point x="-38" y="-300" type="curve" smooth="yes"/>
      <point x="-13" y="-300"/>
      <point x="-9" y="-286"/>
      <point x="-5" y="-268" type="curve" smooth="yes"/>
      <point x="143" y="322" type="line" smooth="yes"/>
      <point x="147" y="338"/>
      <point x="143" y="350"/>
      <point x="126" y="350" type="curve" smooth="yes"/>
      <point x="107" y="350"/>
      <point x="97" y="343"/>
      <point x="92" y="325" type="curve" smooth="yes"/>
      <point x="-56" y="-265" type="line" smooth="yes"/>
      <point x="-60" y="-282"/>
      <point x="-60" y="-300"/>
    </contour>
    <contour>
      <point x="127" y="0" type="curve" smooth="yes"/>
      <point x="207" y="0"/>
      <point x="274" y="74"/>
      <point x="301" y="182" type="curve" smooth="yes"/>
      <point x="327" y="286"/>
      <point x="294" y="354"/>
      <point x="227" y="354" type="curve" smooth="yes"/>
      <point x="160" y="354"/>
      <point x="101" y="285"/>
      <point x="73" y="172" type="curve" smooth="yes"/>
      <point x="46" y="66"/>
      <point x="67" y="0"/>
    </contour>
    <contour>
      <point x="138" y="45" type="curve" smooth="yes"/>
      <point x="98" y="45"/>
      <point x="84" y="85"/>
      <point x="103" y="163" type="curve" smooth="yes"/>
      <point x="124" y="248"/>
      <point x="168" y="309"/>
      <point x="216" y="309" type="curve" smooth="yes"/>
      <point x="256" y="309"/>
      <point x="270" y="269"/>
      <point x="251" y="191" type="curve" smooth="yes"/>
      <point x="230" y="106"/>
      <point x="186" y="45"/>
    </contour>
  </outline>
</glyph>
<glyph name="q" format="2">
  <advance width="326"/>
  <unicode hex="0071"/>
  <outline>
    <contour>
      <point x="173" y="-300.0" type="curve" smooth="yes"/>
      <point x="209" y="-300.0"/>
      <point x="260" y="-262"/>
      <point x="322" y="-200" type="curve" smooth="yes"/>
      <point x="332" y="-190"/>
      <point x="337" y="-180"/>
      <point x="338" y="-169" type="curve" smooth="yes"/>
      <point x="340" y="-157"/>
      <point x="331" y="-149"/>
      <point x="320" y="-147" type="curve" smooth="yes"/>
      <point x="309" y="-145"/>
      <point x="300" y="-152"/>
      <point x="287" y="-165" type="curve" smooth="yes"/>
      <point x="238" y="-214"/>
      <point x="207" y="-243.0"/>
      <point x="197" y="-243.0" type="curve" smooth="yes"/>
      <point x="188" y="-243.0"/>
      <point x="187" y="-234"/>
      <point x="194" y="-206" type="curve" smooth="yes"/>
      <point x="326" y="322" type="line" smooth="yes"/>
      <point x="330" y="338"/>
      <point x="326" y="350"/>
      <point x="309" y="350" type="curve" smooth="yes"/>
      <point x="290" y="350"/>
      <point x="280" y="343"/>
      <point x="275" y="325" type="curve" smooth="yes"/>
      <point x="144" y="-197" type="line" smooth="yes"/>
      <point x="127" y="-265"/>
      <point x="137" y="-300.0"/>
    </contour>
    <contour>
      <point x="117" y="0" type="curve" smooth="yes"/>
      <point x="184" y="0"/>
      <point x="243" y="69"/>
      <point x="271" y="182" type="curve" smooth="yes"/>
      <point x="298" y="288"/>
      <point x="277" y="354"/>
      <point x="217" y="354" type="curve" smooth="yes"/>
      <point x="137" y="354"/>
      <point x="70" y="280"/>
      <point x="43" y="172" type="curve" smooth="yes"/>
      <point x="17" y="68"/>
      <point x="50" y="0"/>
    </contour>
    <contour>
      <point x="128" y="45" type="curve" smooth="yes"/>
      <point x="88" y="45"/>
      <point x="74" y="85"/>
      <point x="93" y="163" type="curve" smooth="yes"/>
      <point x="114" y="248"/>
      <point x="158" y="309"/>
      <point x="206" y="309" type="curve" smooth="yes"/>
      <point x="246" y="309"/>
      <point x="260" y="269"/>
      <point x="241" y="191" type="curve" smooth="yes"/>
      <point x="220" y="106"/>
      <point x="176" y="45"/>
    </contour>
  </outline>
</glyph>
<glyph name="u" format="2">
  <advance width="354"/>
  <unicode hex="0075"/>
  <outline>
    <contour>
      <point x="99" y="0" type="curve" smooth="yes"/>
      <point x="151" y="0"/>
      <point x="214" y="59"/>
      <point x="261" y="140" type="curve"/>
      <point x="285" y="253" type="line"/>
      <point x="266" y="181"/>
      <point x="156" y="46"/>
      <point x="111" y="46" type="curve" smooth="yes"/>
      <point x="84" y="46"/>
      <point x="80" y="79"/>
      <point x="101" y="161" type="curve" smooth="yes"/>
      <point x="142" y="322" type="line" smooth="yes"/>
      <point x="146" y="338"/>
      <point x="142" y="350"/>
      <point x="125" y="350" type="curve" smooth="yes"/>
      <point x="106" y="350"/>
      <point x="96" y="343"/>
      <point x="91" y="325" type="curve" smooth="yes"/>
      <point x="51" y="166" type="line" smooth="yes"/>
      <point x="21" y="48"/>
      <point x="35" y="0"/>
    </contour>
    <contour>
      <point x="248" y="0" type="curve" smooth="yes"/>
      <point x="273" y="0"/>
      <point x="276" y="14"/>
      <point x="281" y="32" type="curve" smooth="yes"/>
      <point x="354" y="322" type="line" smooth="yes"/>
      <point x="358" y="338"/>
      <point x="354" y="350"/>
      <point x="337" y="350" type="curve" smooth="yes"/>
      <point x="318" y="350"/>
      <point x="308" y="343"/>
      <point x="303" y="325" type="curve" smooth="yes"/>
      <point x="230" y="35" type="line" smooth="yes"/>
      <point x="226" y="18"/>
      <point x="226" y="0"/>
    </contour>
  </outline>
</glyph>
<glyph name="x" format="2">
  <advance width="298"/>
  <unicode hex="0078"/>
  <outline>
    <contour>
      <point x="25" y="0" type="curve" smooth="yes"/>
      <point x="34" y="0"/>
      <point x="42" y="4"/>
      <point x="59" y="24" type="curve" smooth="yes"/>
      <point x="298" y="308" type="line" smooth="yes"/>
      <point x="314" y="327"/>
      <point x="309" y="350"/>
      <point x="285" y="350" type="curve" smooth="yes"/>
      <point x="276" y="350"/>
      <point x="269" y="346"/>
      <point x="259" y="335" type="curve" smooth="yes"/>
      <point x="15" y="44" type="line" smooth="yes"/>
      <point x="0" y="27"/>
      <point x="3" y="0"/>
    </contour>
    <contour>
      <point x="209" y="0" type="curve" smooth="yes"/>
      <point x="228" y="0"/>
      <point x="239" y="15"/>
      <point x="230" y="42" type="curve" smooth="yes"/>
      <point x="133" y="329" type="line" smooth="yes"/>
      <point x="128" y="344"/>
      <point x="118" y="350"/>
      <point x="108" y="350" type="curve" smooth="yes"/>
      <point x="85" y="350"/>
      <point x="80" y="329"/>
      <point x="87" y="309" type="curve" smooth="yes"/>
      <point x="184" y="25" type="line" smooth="yes"/>
      <point x="192" y="3"/>
      <point x="200" y="0"/>
    </contour>
  </outline>
</glyph>
<glyph name="z" format="2">
  <advance width="350"/>
  <unicode hex="007A"/>
  <outline>
    <contour>
      <point x="35" y="0" type="curve" smooth="yes"/>
      <point x="259" y="0" type="line" smooth="yes"/>
      <point x="279" y="0"/>
      <point x="285" y="11"/>
      <point x="285" y="23" type="curve" smooth="yes"/>
      <point x="285" y="35"/>
      <point x="279" y="45"/>
      <point x="259" y="45" type="curve" smooth="yes"/>
      <point x="68" y="45" type="line"/>
      <point x="71" y="28" type="line"/>
      <point x="316" y="308" type="line" smooth="yes"/>
      <point x="332" y="326"/>
      <point x="325" y="350"/>
      <point x="301" y="350" type="curve" smooth="yes"/>
      <point x="108" y="350" type="line" smooth="yes"/>
      <point x="88" y="350"/>
      <point x="82" y="339"/>
      <point x="82" y="327" type="curve" smooth="yes"/>
      <point x="82" y="315"/>
      <point x="88" y="305"/>
      <point x="108" y="305" type="curve" smooth="yes"/>
      <point x="270" y="305" type="line"/>
      <point x="266" y="322" type="line"/>
      <point x="22" y="44" type="line" smooth="yes"/>
      <point x="10" y="30"/>
      <point x="13" y="0"/>
    </contour>
  </outline>
</glyph>
<glyph name="braceleft" format="2">
  <advance width="358"/>
  <unicode hex="007B"/>
  <guideline x="286" y="246" angle="0" identifier="dLwT1o6isy"/>
  <outline>
    <contour>
      <point x="135" y="-197" type="curve" smooth="yes"/>
      <point x="148" y="-208"/>
      <point x="161" y="-210"/>
      <point x="170" y="-201" type="curve" smooth="yes"/>
      <point x="180" y="-191"/>
      <point x="180" y="-179"/>
      <point x="168" y="-168" type="curve" smooth="yes"/>
      <point x="122" y="-124"/>
      <point x="93" y="-75"/>
      <point x="93" y="-41" type="curve" smooth="yes"/>
      <point x="93" y="11"/>
      <point x="143" y="73"/>
      <point x="143.0" y="121.0" type="curve" smooth="yes"/>
      <point x="143.0" y="156.0"/>
      <point x="131" y="194"/>
      <point x="95" y="246" type="curve"/>
      <point x="87" y="204" type="line"/>
      <point x="165" y="256"/>
      <point x="197" y="314"/>
      <point x="197" y="371" type="curve" smooth="yes"/>
      <point x="197" y="434"/>
      <point x="210" y="493"/>
      <point x="232" y="524" type="curve" smooth="yes"/>
      <point x="254" y="557"/>
      <point x="298" y="584"/>
      <point x="359" y="608" type="curve" smooth="yes"/>
      <point x="372" y="613"/>
      <point x="378" y="623"/>
      <point x="374" y="636" type="curve" smooth="yes"/>
      <point x="370" y="648"/>
      <point x="359" y="652"/>
      <point x="343" y="646" type="curve" smooth="yes"/>
      <point x="273" y="622"/>
      <point x="219" y="584"/>
      <point x="191" y="544" type="curve" smooth="yes"/>
      <point x="164" y="504"/>
      <point x="147" y="440"/>
      <point x="147" y="378" type="curve" smooth="yes"/>
      <point x="147" y="339"/>
      <point x="131" y="289"/>
      <point x="92" y="260" type="curve" smooth="yes"/>
      <point x="76" y="248"/>
      <point x="65" y="240"/>
      <point x="62" y="228" type="curve" smooth="yes"/>
      <point x="60" y="218"/>
      <point x="64" y="208"/>
      <point x="76" y="192" type="curve" smooth="yes"/>
      <point x="88" y="175"/>
      <point x="94.0" y="149.0"/>
      <point x="94.0" y="126.0" type="curve" smooth="yes"/>
      <point x="94" y="79"/>
      <point x="43" y="18"/>
      <point x="43" y="-36" type="curve" smooth="yes"/>
      <point x="43" y="-86"/>
      <point x="78" y="-148"/>
    </contour>
  </outline>
</glyph>
<glyph name="bar" format="2">
  <advance width="249"/>
  <unicode hex="007C"/>
  <outline>
    <contour>
      <point x="5" y="-299" type="curve" smooth="yes"/>
      <point x="27" y="-299"/>
      <point x="33" y="-286"/>
      <point x="35" y="-276" type="curve" smooth="yes"/>
      <point x="267" y="667" type="line" smooth="yes"/>
      <point x="271" y="685"/>
      <point x="266" y="700"/>
      <point x="249" y="700" type="curve" smooth="yes"/>
      <point x="230" y="700"/>
      <point x="222" y="691"/>
      <point x="218" y="675" type="curve" smooth="yes"/>
      <point x="-16" y="-270" type="line" smooth="yes"/>
      <point x="-20" y="-285"/>
      <point x="-13" y="-299"/>
    </contour>
  </outline>
</glyph>
<glyph name="braceright" format="2">
  <advance width="358"/>
  <unicode hex="007D"/>
  <outline>
    <contour>
      <point x="18" y="-204" type="curve" smooth="yes"/>
      <point x="88" y="-180"/>
      <point x="142" y="-142"/>
      <point x="170" y="-102" type="curve" smooth="yes"/>
      <point x="197" y="-62"/>
      <point x="214" y="2"/>
      <point x="214" y="64" type="curve" smooth="yes"/>
      <point x="214" y="103"/>
      <point x="230" y="153"/>
      <point x="269" y="182" type="curve" smooth="yes"/>
      <point x="285" y="194"/>
      <point x="296" y="202"/>
      <point x="299" y="214" type="curve" smooth="yes"/>
      <point x="301" y="224"/>
      <point x="297" y="234"/>
      <point x="285" y="250" type="curve" smooth="yes"/>
      <point x="273" y="267"/>
      <point x="267" y="293"/>
      <point x="267" y="316" type="curve" smooth="yes"/>
      <point x="267" y="363"/>
      <point x="318" y="424"/>
      <point x="318" y="478" type="curve" smooth="yes"/>
      <point x="318" y="528"/>
      <point x="283" y="590"/>
      <point x="226" y="639" type="curve" smooth="yes"/>
      <point x="213" y="650"/>
      <point x="200" y="652"/>
      <point x="191" y="643" type="curve" smooth="yes"/>
      <point x="181" y="633"/>
      <point x="181" y="621"/>
      <point x="193" y="610" type="curve" smooth="yes"/>
      <point x="239" y="566"/>
      <point x="268" y="517"/>
      <point x="268" y="483" type="curve" smooth="yes"/>
      <point x="268" y="431"/>
      <point x="218" y="369"/>
      <point x="218" y="321" type="curve" smooth="yes"/>
      <point x="218" y="286"/>
      <point x="230" y="248"/>
      <point x="266" y="196" type="curve"/>
      <point x="274" y="238" type="line"/>
      <point x="196" y="186"/>
      <point x="164" y="128"/>
      <point x="164" y="71" type="curve" smooth="yes"/>
      <point x="164" y="8"/>
      <point x="151" y="-51"/>
      <point x="129" y="-82" type="curve" smooth="yes"/>
      <point x="107" y="-115"/>
      <point x="63" y="-142"/>
      <point x="2" y="-166" type="curve" smooth="yes"/>
      <point x="-11" y="-171"/>
      <point x="-17" y="-181"/>
      <point x="-13" y="-194" type="curve" smooth="yes"/>
      <point x="-9" y="-206"/>
      <point x="2" y="-210"/>
    </contour>
  </outline>
</glyph>
<glyph name="brokenbar" format="2">
  <advance width="249"/>
  <unicode hex="00A6"/>
  <outline>
    <contour>
      <point x="144" y="260" type="curve" smooth="yes"/>
      <point x="166" y="260"/>
      <point x="172" y="273"/>
      <point x="174" y="283" type="curve" smooth="yes"/>
      <point x="267" y="667" type="line" smooth="yes"/>
      <point x="271" y="685"/>
      <point x="266" y="700"/>
      <point x="249" y="700" type="curve" smooth="yes"/>
      <point x="230" y="700"/>
      <point x="222" y="691"/>
      <point x="218" y="675" type="curve" smooth="yes"/>
      <point x="123" y="289" type="line" smooth="yes"/>
      <point x="119" y="274"/>
      <point x="126" y="260"/>
    </contour>
    <contour>
      <point x="5" y="-299" type="curve" smooth="yes"/>
      <point x="27" y="-299"/>
      <point x="33" y="-286"/>
      <point x="35" y="-276" type="curve" smooth="yes"/>
      <point x="128" y="108" type="line" smooth="yes"/>
      <point x="132" y="126"/>
      <point x="127" y="141"/>
      <point x="110" y="141" type="curve" smooth="yes"/>
      <point x="91" y="141"/>
      <point x="83" y="132"/>
      <point x="79" y="116" type="curve" smooth="yes"/>
      <point x="-16" y="-270" type="line" smooth="yes"/>
      <point x="-20" y="-285"/>
      <point x="-13" y="-299"/>
    </contour>
  </outline>
</glyph>
<glyph name="degree" format="2">
  <advance width="438"/>
  <unicode hex="00B0"/>
  <guideline x="323" y="516" angle="0" identifier="a8lJXTlcRe"/>
  <outline>
    <contour>
      <point x="300" y="391" type="curve" smooth="yes"/>
      <point x="373" y="391"/>
      <point x="428" y="447"/>
      <point x="428" y="521" type="curve" smooth="yes"/>
      <point x="428" y="595"/>
      <point x="374" y="650"/>
      <point x="301" y="650" type="curve" smooth="yes"/>
      <point x="228" y="650"/>
      <point x="174" y="595"/>
      <point x="174" y="521" type="curve" smooth="yes"/>
      <point x="174" y="447"/>
      <point x="228" y="391"/>
    </contour>
    <contour>
      <point x="300" y="436" type="curve" smooth="yes"/>
      <point x="255" y="436"/>
      <point x="223" y="472"/>
      <point x="224" y="521" type="curve" smooth="yes"/>
      <point x="224" y="569"/>
      <point x="257" y="605"/>
      <point x="301" y="605" type="curve" smooth="yes"/>
      <point x="344" y="605"/>
      <point x="376" y="569"/>
      <point x="376" y="521" type="curve" smooth="yes"/>
      <point x="376" y="472"/>
      <point x="344" y="436"/>
    </contour>
  </outline>
</glyph>
<glyph name="questiondown" format="2">
  <advance width="424"/>
  <unicode hex="00BF"/>
  <outline>
    <contour>
      <point x="184" y="0" type="curve" smooth="yes"/>
      <point x="272" y="0"/>
      <point x="348" y="61"/>
      <point x="374" y="161" type="curve" smooth="yes"/>
      <point x="379" y="182"/>
      <point x="369" y="193"/>
      <point x="353" y="193" type="curve" smooth="yes"/>
      <point x="342" y="193"/>
      <point x="329" y="187"/>
      <point x="324" y="168" type="curve" smooth="yes"/>
      <point x="305" y="92"/>
      <point x="254" y="45"/>
      <point x="184" y="45" type="curve" smooth="yes"/>
      <point x="126" y="45"/>
      <point x="90" y="83"/>
      <point x="90" y="144" type="curve" smooth="yes"/>
      <point x="90" y="246"/>
      <point x="162" y="324"/>
      <point x="259" y="324" type="curve" smooth="yes"/>
      <point x="290" y="324"/>
      <point x="302" y="334"/>
      <point x="308" y="357" type="curve" smooth="yes"/>
      <point x="330" y="443" type="line" smooth="yes"/>
      <point x="335" y="464"/>
      <point x="325" y="475"/>
      <point x="309" y="475" type="curve" smooth="yes"/>
      <point x="298" y="475"/>
      <point x="285" y="469"/>
      <point x="280" y="450" type="curve" smooth="yes"/>
      <point x="256" y="352" type="line"/>
      <point x="277" y="370" type="line"/>
      <point x="144" y="370"/>
      <point x="41" y="271"/>
      <point x="42" y="138" type="curve" smooth="yes"/>
      <point x="43" y="53"/>
      <point x="97" y="0"/>
    </contour>
    <contour>
      <point x="333" y="574" type="curve" smooth="yes"/>
      <point x="354" y="574"/>
      <point x="370" y="591"/>
      <point x="370" y="611" type="curve" smooth="yes"/>
      <point x="370" y="631"/>
      <point x="354" y="650"/>
      <point x="333" y="650" type="curve" smooth="yes"/>
      <point x="313" y="650"/>
      <point x="295" y="632"/>
      <point x="295" y="611" type="curve" smooth="yes"/>
      <point x="295" y="591"/>
      <point x="313" y="574"/>
    </contour>
  </outline>
</glyph>
<glyph name="divide" format="2">
  <advance width="426"/>
  <unicode hex="00F7"/>
  <outline>
    <contour>
      <point x="202" y="87" type="curve" smooth="yes"/>
      <point x="220" y="87"/>
      <point x="236" y="103"/>
      <point x="236" y="120" type="curve" smooth="yes"/>
      <point x="236" y="138"/>
      <point x="219" y="152"/>
      <point x="202" y="152" type="curve" smooth="yes"/>
      <point x="183" y="152"/>
      <point x="171" y="136"/>
      <point x="171" y="120" type="curve" smooth="yes"/>
      <point x="171" y="103"/>
      <point x="184" y="87"/>
    </contour>
    <contour>
      <point x="117" y="205" type="curve" smooth="yes"/>
      <point x="344" y="205" type="line" smooth="yes"/>
      <point x="362" y="205"/>
      <point x="371" y="217"/>
      <point x="371" y="228" type="curve" smooth="yes"/>
      <point x="371" y="239"/>
      <point x="362" y="250"/>
      <point x="344" y="250" type="curve" smooth="yes"/>
      <point x="117" y="250" type="line" smooth="yes"/>
      <point x="99" y="250"/>
      <point x="90" y="239"/>
      <point x="90" y="228" type="curve" smooth="yes"/>
      <point x="90" y="217"/>
      <point x="99" y="205"/>
    </contour>
    <contour>
      <point x="257" y="303" type="curve" smooth="yes"/>
      <point x="274" y="303"/>
      <point x="290" y="319"/>
      <point x="290" y="336" type="curve" smooth="yes"/>
      <point x="290" y="353"/>
      <point x="274" y="368"/>
      <point x="257" y="368" type="curve" smooth="yes"/>
      <point x="239" y="368"/>
      <point x="225" y="352"/>
      <point x="225" y="336" type="curve" smooth="yes"/>
      <point x="225" y="320"/>
      <point x="239" y="303"/>
    </contour>
  </outline>
</glyph>
<glyph name="endash" format="2">
  <advance width="388"/>
  <unicode hex="2013"/>
  <outline>
    <contour>
      <point x="100" y="177" type="curve" smooth="yes"/>
      <point x="298" y="177" type="line" smooth="yes"/>
      <point x="317" y="177"/>
      <point x="329" y="185"/>
      <point x="329" y="200" type="curve" smooth="yes"/>
      <point x="329" y="215"/>
      <point x="318" y="223"/>
      <point x="300" y="223" type="curve" smooth="yes"/>
      <point x="102" y="223" type="line" smooth="yes"/>
      <point x="83" y="223"/>
      <point x="71" y="215"/>
      <point x="71" y="200" type="curve" smooth="yes"/>
      <point x="71" y="185"/>
      <point x="82" y="177"/>
    </contour>
  </outline>
</glyph>
<glyph name="emdash" format="2">
  <advance width="538"/>
  <unicode hex="2014"/>
  <outline>
    <contour>
      <point x="100" y="177" type="curve" smooth="yes"/>
      <point x="448" y="177" type="line" smooth="yes"/>
      <point x="467" y="177"/>
      <point x="479" y="185"/>
      <point x="479" y="200" type="curve" smooth="yes"/>
      <point x="479" y="215"/>
      <point x="468" y="223"/>
      <point x="450" y="223" type="curve" smooth="yes"/>
      <point x="102" y="223" type="line" smooth="yes"/>
      <point x="83" y="223"/>
      <point x="71" y="215"/>
      <point x="71" y="200" type="curve" smooth="yes"/>
      <point x="71" y="185"/>
      <point x="82" y="177"/>
    </contour>
  </outline>
</glyph>
<glyph name="ellipsis" format="2">
  <advance width="532"/>
  <unicode hex="2026"/>
  <outline>
    <contour>
      <point x="88" y="0" type="curve" smooth="yes"/>
      <point x="108" y="0"/>
      <point x="126" y="18"/>
      <point x="126" y="39" type="curve" smooth="yes"/>
      <point x="126" y="59"/>
      <point x="108" y="76"/>
      <point x="88" y="76" type="curve" smooth="yes"/>
      <point x="67" y="76"/>
      <point x="51" y="59"/>
      <point x="51" y="39" type="curve" smooth="yes"/>
      <point x="51" y="19"/>
      <point x="67" y="0"/>
    </contour>
    <contour>
      <point x="228" y="0" type="curve" smooth="yes"/>
      <point x="248" y="0"/>
      <point x="266" y="18"/>
      <point x="266" y="39" type="curve" smooth="yes"/>
      <point x="266" y="59"/>
      <point x="248" y="76"/>
      <point x="228" y="76" type="curve" smooth="yes"/>
      <point x="207" y="76"/>
      <point x="191" y="59"/>
      <point x="191" y="39" type="curve" smooth="yes"/>
      <point x="191" y="19"/>
      <point x="207" y="0"/>
    </contour>
    <contour>
      <point x="368" y="0" type="curve" smooth="yes"/>
      <point x="388" y="0"/>
      <point x="406" y="18"/>
      <point x="406" y="39" type="curve" smooth="yes"/>
      <point x="406" y="59"/>
      <point x="388" y="76"/>
      <point x="368" y="76" type="curve" smooth="yes"/>
      <point x="347" y="76"/>
      <point x="331" y="59"/>
      <point x="331" y="39" type="curve" smooth="yes"/>
      <point x="331" y="19"/>
      <point x="347" y="0"/>
    </contour>
  </outline>
</glyph>
<glyph name="notequal" format="2">
  <advance width="426"/>
  <unicode hex="2260"/>
  <outline>
    <contour>
      <point x="96" y="129" type="curve" smooth="yes"/>
      <point x="323" y="129" type="line" smooth="yes"/>
      <point x="341" y="129"/>
      <point x="350" y="141"/>
      <point x="350" y="152" type="curve" smooth="yes"/>
      <point x="350" y="163"/>
      <point x="341" y="174"/>
      <point x="323" y="174" type="curve" smooth="yes"/>
      <point x="96" y="174" type="line" smooth="yes"/>
      <point x="78" y="174"/>
      <point x="69" y="162"/>
      <point x="69" y="151" type="curve" smooth="yes"/>
      <point x="69" y="140"/>
      <point x="78" y="129"/>
    </contour>
    <contour>
      <point x="133" y="280" type="curve" smooth="yes"/>
      <point x="360" y="280" type="line" smooth="yes"/>
      <point x="378" y="280"/>
      <point x="387" y="292"/>
      <point x="387" y="303" type="curve" smooth="yes"/>
      <point x="387" y="314"/>
      <point x="378" y="325"/>
      <point x="360" y="325" type="curve" smooth="yes"/>
      <point x="133" y="325" type="line" smooth="yes"/>
      <point x="115" y="325"/>
      <point x="106" y="313"/>
      <point x="106" y="302" type="curve" smooth="yes"/>
      <point x="106" y="291"/>
      <point x="115" y="280"/>
    </contour>
    <contour>
      <point x="173" y="89" type="curve" smooth="yes"/>
      <point x="309" y="338" type="line" smooth="yes"/>
      <point x="323" y="362"/>
      <point x="309" y="377"/>
      <point x="295" y="377" type="curve" smooth="yes"/>
      <point x="285" y="377"/>
      <point x="278" y="373"/>
      <point x="271" y="362" type="curve" smooth="yes"/>
      <point x="132" y="110" type="line" smooth="yes"/>
      <point x="123" y="92"/>
      <point x="130" y="80"/>
      <point x="141" y="75" type="curve" smooth="yes"/>
      <point x="150" y="71"/>
      <point x="164" y="73"/>
    </contour>
  </outline>
</glyph>
<glyph name=".notdef" format="2">
  <advance width="567"/>
  <outline>
    <contour>
      <point x="72" y="0" type="curve" smooth="yes"/>
      <point x="413" y="0" type="line" smooth="yes"/>
      <point x="424.0" y="0.0"/>
      <point x="435" y="12"/>
      <point x="439" y="27" type="curve" smooth="yes"/>
      <point x="596" y="673" type="line" smooth="yes"/>
      <point x="600" y="689"/>
      <point x="592" y="700"/>
      <point x="578" y="700" type="curve" smooth="yes"/>
      <point x="239" y="700" type="line" smooth="yes"/>
      <point x="222.0" y="700.0"/>
      <point x="212" y="689"/>
      <point x="208" y="673" type="curve" smooth="yes"/>
      <point x="48" y="27" type="line" smooth="yes"/>
      <point x="44" y="12"/>
      <point x="53" y="0"/>
    </contour>
    <contour>
      <point x="95" y="16" type="line"/>
      <point x="262" y="684" type="line"/>
      <point x="225" y="655" type="line"/>
      <point x="570" y="655" type="line"/>
      <point x="547" y="684" type="line"/>
      <point x="384" y="16" type="line"/>
      <point x="421" y="45" type="line"/>
      <point x="72" y="45" type="line"/>
    </contour>
  </outline>
</glyph>
